<?xml version="1.0" encoding="UTF-8"?>
<svg width="24px" height="24px" viewBox="0 0 24 24" version="1.1" xmlns="http://www.w3.org/2000/svg" xmlns:xlink="http://www.w3.org/1999/xlink">
    <title>0F888DB7-7CCA-4466-AF1F-7124D747DB02</title>
    <defs>
        <linearGradient x1="94.5987654%" y1="50%" x2="17.3995156%" y2="87.7955687%" id="linearGradient-1">
            <stop stop-color="#4990FB" offset="0%"></stop>
            <stop stop-color="#2357F6" offset="100%"></stop>
        </linearGradient>
        <path d="M11.002784,0 C15.0710403,0 18.4612538,2.04362226 20.3104612,5.56494061 L16.2730251,8.36313109 C15.0402201,6.2251878 13.3759335,4.96757411 10.9719639,4.96757411 C7.73585093,4.96757411 5.42434169,7.29415945 5.42434169,10.7840375 C5.42434169,14.2739155 7.73585093,16.5376201 10.9719639,16.5376201 C13.3759335,16.5376201 15.0402201,15.2800064 16.2730251,13.1420631 L20.3104612,15.9402536 C18.4612538,19.461572 15.0710403,21.5051942 10.9719639,21.5051942 C4.83875935,21.5051942 -1.0658141e-14,16.8834639 -1.0658141e-14,10.7525971 C-1.0658141e-14,4.65317068 4.83875935,0 11.002784,0 Z" id="path-2"></path>
    </defs>
    <g id="Main" stroke="none" stroke-width="1" fill="none" fill-rule="evenodd">
        <g id="29-01-03" transform="translate(-40.000000, -33.000000)">
            <g id="Logo_default" transform="translate(40.000000, 32.000000)">
                <g id="Group" transform="translate(0.000000, 1.000000)">
                    <g id="Group-2" transform="translate(1.000000, 1.000000)">
                        <circle id="Oval" fill="#2355F4" opacity="0.200000003" cx="19.9931103" cy="10.4725816" r="1.90410574"></circle>
                        <g id="C" fill-rule="nonzero">
                            <use fill="url(#linearGradient-1)" xlink:href="#path-2"></use>
                            <use fill="#2355F4" xlink:href="#path-2"></use>
                        </g>
                    </g>
                </g>
            </g>
        </g>
    </g>
</svg>