<?xml version="1.0" encoding="UTF-8"?>
<svg width="16px" height="16px" viewBox="0 0 16 16" version="1.1" xmlns="http://www.w3.org/2000/svg" xmlns:xlink="http://www.w3.org/1999/xlink">
    <title>99F7462D-28E9-43FC-AF1A-1F214B2CC6F9</title>
    <g id="Main" stroke="none" stroke-width="1" fill="none" fill-rule="evenodd">
        <g id="29-01-03" transform="translate(-1069.000000, -275.000000)" fill="currentColor" fill-rule="nonzero" stroke="#24242A" stroke-width="0.2">
            <g id="Table" transform="translate(992.000000, 269.000000)">
                <g id="Column" transform="translate(16.000000, 6.000000)">
                    <g id="Group" transform="translate(69.000000, 8.000000) rotate(180.000000) translate(-69.000000, -8.000000) translate(61.000000, 0.000000)">
                        <path d="M11.9984166,7.66128035 L8.66507958,4.14276924 C8.47044995,3.91215998 8.09602402,3.91678406 7.87720921,4.12458406 C7.65839439,4.33238221 7.64043143,4.7003785 7.86072773,4.90665813 L10.3028537,7.48767665 L4.45760998,7.48767665 C4.15079517,7.48767665 3.90205443,7.73640998 3.90205443,8.0432248 C3.90205443,8.35005813 4.15079517,8.59878035 4.45760998,8.59878035 L10.3028537,8.59878035 L7.86072773,11.1797989 C7.64046847,11.3860952 7.6585055,11.7556507 7.87739439,11.963447 C8.09620921,12.1712433 8.47594995,12.1721507 8.66519069,11.9436878 L11.9985314,8.42516924 C12.099924,8.3174285 12.1475129,8.19176183 12.1489944,8.0432248 C12.1436574,7.91083591 12.0891944,7.75779887 11.9984166,7.66128035 Z" id="Path" transform="translate(8.025524, 8.043237) rotate(-270.000000) translate(-8.025524, -8.043237) "></path>
                    </g>
                </g>
            </g>
        </g>
    </g>
</svg>