<?xml version="1.0" encoding="UTF-8"?>
<svg width="32px" height="32px" viewBox="0 0 32 32" version="1.1" xmlns="http://www.w3.org/2000/svg" xmlns:xlink="http://www.w3.org/1999/xlink">
    <title>965A199F-3090-4FF0-9879-C24AFD0A1129</title>
    <g id="Main" stroke="none" stroke-width="1" fill="none" fill-rule="evenodd">
        <g id="29-01-03" transform="translate(-36.000000, -158.000000)" fill="currentColor" fill-rule="nonzero">
            <g id="Dashboard_Default" transform="translate(26.000000, 158.000000)">
                <g id="Ic" transform="translate(10.000000, 0.000000)">
                    <path d="M13.9054545,16.3781818 C14.8477194,16.3781818 15.6218182,17.152281 15.6218182,18.0945455 L15.6218182,22.2836364 C15.6218182,23.2259009 14.8477194,24 13.9054545,24 L9.71636364,24 C8.77409878,24 8,23.2259009 8,22.2836364 L8,18.0945455 C8,17.152281 8.77409878,16.3781818 9.71636364,16.3781818 L13.9054545,16.3781818 Z M22.2836364,16.3781818 C23.2259012,16.3781818 24,17.152281 24,18.0945455 L24,22.2836364 C24,23.2259009 23.2259012,24 22.2836364,24 L18.0945455,24 C17.1522806,24 16.3781818,23.2259009 16.3781818,22.2836364 L16.3781818,18.0945455 C16.3781818,17.152281 17.1522806,16.3781818 18.0945455,16.3781818 L22.2836364,16.3781818 Z M13.9054545,17.9490909 L9.71636364,17.9490909 C9.62718146,17.9490909 9.57090909,18.0053631 9.57090909,18.0945455 L9.57090909,22.2836364 C9.57090909,22.3728187 9.62718146,22.4290909 9.71636364,22.4290909 L13.9054545,22.4290909 C13.9946367,22.4290909 14.0509091,22.3728187 14.0509091,22.2836364 L14.0509091,18.0945455 C14.0509091,18.0053631 13.9946367,17.9490909 13.9054545,17.9490909 Z M22.2836364,17.9490909 L18.0945455,17.9490909 C18.0053633,17.9490909 17.9490909,18.0053631 17.9490909,18.0945455 L17.9490909,22.2836364 C17.9490909,22.3728187 18.0053633,22.4290909 18.0945455,22.4290909 L22.2836364,22.4290909 C22.3728185,22.4290909 22.4290909,22.3728187 22.4290909,22.2836364 L22.4290909,18.0945455 C22.4290909,18.0053631 22.3728185,17.9490909 22.2836364,17.9490909 Z M13.9054545,8 C14.8477194,8 15.6218182,8.77409914 15.6218182,9.71636364 L15.6218182,13.9054545 C15.6218182,14.847719 14.8477194,15.6218182 13.9054545,15.6218182 L9.71636364,15.6218182 C8.77409878,15.6218182 8,14.847719 8,13.9054545 L8,9.71636364 C8,8.77409914 8.77409878,8 9.71636364,8 L13.9054545,8 Z M22.2836364,8 C23.2259012,8 24,8.77409914 24,9.71636364 L24,13.9054545 C24,14.847719 23.2259012,15.6218182 22.2836364,15.6218182 L18.0945455,15.6218182 C17.1522806,15.6218182 16.3781818,14.847719 16.3781818,13.9054545 L16.3781818,9.71636364 C16.3781818,8.77409914 17.1522806,8 18.0945455,8 L22.2836364,8 Z M13.9054545,9.57090909 L9.71636364,9.57090909 C9.62718252,9.57090909 9.57090909,9.62718258 9.57090909,9.71636364 L9.57090909,13.9054545 C9.57090909,13.9946356 9.62718252,14.0509091 9.71636364,14.0509091 L13.9054545,14.0509091 C13.9946357,14.0509091 14.0509091,13.9946356 14.0509091,13.9054545 L14.0509091,9.71636364 C14.0509091,9.62718258 13.9946357,9.57090909 13.9054545,9.57090909 Z M22.2836364,9.57090909 L18.0945455,9.57090909 C18.0053643,9.57090909 17.9490909,9.62718258 17.9490909,9.71636364 L17.9490909,13.9054545 C17.9490909,13.9946356 18.0053643,14.0509091 18.0945455,14.0509091 L22.2836364,14.0509091 C22.3728175,14.0509091 22.4290909,13.9946356 22.4290909,13.9054545 L22.4290909,9.71636364 C22.4290909,9.62718258 22.3728175,9.57090909 22.2836364,9.57090909 Z" id="Combined-Shape"></path>
                </g>
            </g>
        </g>
    </g>
</svg>