<?xml version="1.0" encoding="UTF-8"?>
<svg width="33px" height="32px" viewBox="0 0 33 32" version="1.1" xmlns="http://www.w3.org/2000/svg" xmlns:xlink="http://www.w3.org/1999/xlink">
    <title>49E0BE11-BEA6-429A-81A6-80DA010CAA61</title>
    <g id="Main" stroke="none" stroke-width="1" fill="none" fill-rule="evenodd">
        <g id="29-01-03" transform="translate(-36.000000, -310.000000)" fill="currentColor" fill-rule="nonzero">
            <g id="Fund_Default" transform="translate(26.000000, 310.000000)">
                <g id="Ic" transform="translate(10.500000, 0.000000)">
                    <path d="M16.4507432,7 C17.355144,7 18.0883042,7.75197955 18.0883038,8.67426854 L18.0879172,8.87106858 L19.8566855,8.87189321 C20.6722673,8.87189321 21.3328313,9.54941301 21.3328313,10.3802206 L21.3328313,15.579924 C21.3328313,15.6484884 21.3283245,15.7164919 21.3194227,15.7835915 L24.5238542,15.7836418 C25.3394361,15.7836418 26,16.4611616 26,17.2919692 L26,22.4916726 C26,23.3224802 25.3394361,24 24.5238542,24 L16.8181024,24 C16.5223678,24 16.2396329,23.9103485 16.0001865,23.7469645 C15.7608421,23.9102403 15.4777894,24 15.1818976,24 L7.47614576,24 C6.66056392,24 6,23.3224802 6,22.4916726 L6,17.2919692 C6,16.4611616 6.66056392,15.7836418 7.47614267,15.7836418 L10.6881965,15.7835915 C10.6792947,15.7164919 10.6747879,15.6484884 10.6747879,15.579924 L10.6747879,10.3802206 C10.6747879,9.54941301 11.3353519,8.87189321 12.1508419,8.87189323 L13.9191093,8.87106836 L13.919315,8.67388595 C13.919315,7.75197955 14.6524752,7 15.556876,7 L16.4507432,7 Z M15.1818976,17.1363916 L7.47614576,17.1363916 C7.41286855,17.1363916 7.35731949,17.1803862 7.33763096,17.2424441 L7.33002797,17.2919692 L7.33002797,22.4916726 C7.33002797,22.5611414 7.37292159,22.6190298 7.43057645,22.6394065 L7.47614576,22.6472503 L15.1818976,22.6472503 C15.2451748,22.6472503 15.3007238,22.6032556 15.3204124,22.5411977 L15.3280154,22.4916726 L15.3280154,17.2919692 C15.3280154,17.2225004 15.2851217,17.164612 15.2274669,17.1442354 L15.1818976,17.1363916 Z M24.5238542,17.1363916 L16.8181024,17.1363916 C16.7548252,17.1363916 16.6992762,17.1803862 16.6795876,17.2424441 L16.6719846,17.2919692 L16.6719846,22.4916726 C16.6719846,22.5611414 16.7148783,22.6190298 16.7725331,22.6394065 L16.8181024,22.6472503 L24.5238542,22.6472503 C24.5871315,22.6472503 24.6426805,22.6032556 24.662369,22.5411977 L24.669972,22.4916726 L24.669972,17.2919692 C24.669972,17.2225004 24.6270784,17.164612 24.5694236,17.1442354 L24.5238542,17.1363916 Z M12.7924935,19.1764483 L12.7924935,20.5421973 L9.86554984,20.5421973 L9.86554984,19.1764483 L12.7924935,19.1764483 Z M22.1344502,19.1764483 L22.1344502,20.5421973 L19.2075065,20.5421973 L19.2075065,19.1764483 L22.1344502,19.1764483 Z M19.8566855,10.2246429 L12.1509337,10.2246429 C12.0876565,10.2246429 12.0321074,10.2686376 12.0124189,10.3306955 L12.0048159,10.3802206 L12.0048159,15.579924 C12.0048159,15.6493928 12.0477095,15.7072812 12.1053644,15.7276578 L12.1509337,15.7355017 L19.8566855,15.7355017 C19.9199627,15.7355017 19.9755118,15.691507 19.9952003,15.6294491 L20.0028033,15.579924 L20.0028033,10.3802206 C20.0028033,10.3107518 19.9599097,10.2528634 19.9022548,10.2324868 L19.8566855,10.2246429 Z M17.4672814,12.2646997 L17.4672814,13.6304486 L14.5403378,13.6304486 L14.5403378,12.2646997 L17.4672814,12.2646997 Z M16.4507432,8.35274972 L15.556876,8.35274972 C15.4203147,8.35274972 15.28354,8.51889802 15.2548316,8.75420003 L15.2493378,8.87097701 L16.7582583,8.87097701 L16.7527876,8.75417202 C16.7276678,8.54830727 16.6198096,8.39536688 16.5017522,8.36034843 L16.4507432,8.35274972 Z" id="Combined-Shape"></path>
                </g>
            </g>
        </g>
    </g>
</svg>