<?xml version="1.0" encoding="UTF-8"?>
<svg width="33px" height="32px" viewBox="0 0 33 32" version="1.1" xmlns="http://www.w3.org/2000/svg" xmlns:xlink="http://www.w3.org/1999/xlink">
    <title>D0C106A0-7E9D-4C20-8E90-169D86CCDC7D</title>
    <g id="Main" stroke="none" stroke-width="1" fill="none" fill-rule="evenodd">
        <g id="29-01-03" transform="translate(-35.000000, -234.000000)">
            <g id="Port_Default" transform="translate(25.500000, 234.000000)">
                <g id="Ic" transform="translate(10.000000, 0.000000)">
                    <path d="M16.6965728,8 C17.9353565,8 18.9432099,9.02592311 18.9432099,10.2869169 L18.943,10.895 L22.0049383,10.8954424 C23.1052923,10.8954424 24,11.8061912 24,12.9262735 L24,20.9691689 C24,22.0892511 23.1052923,23 22.0049383,23 L9.99506173,23 C8.89470768,23 8,22.0892511 8,20.9691689 L8,12.9262735 C8,11.8061912 8.89470768,10.8954424 9.99506173,10.8954424 L13.056,10.895 L13.0567901,10.2869169 C13.0567901,9.02592311 14.0646435,8 15.3034272,8 L16.6965728,8 Z M22.0049383,12.383378 L9.99506173,12.383378 C9.7010059,12.383378 9.4617284,12.6269455 9.4617284,12.9262735 L9.4617284,20.9691689 C9.4617284,21.2684968 9.7010059,21.5120643 9.99506173,21.5120643 L22.0049383,21.5120643 C22.2989941,21.5120643 22.5382716,21.2684968 22.5382716,20.9691689 L22.5382716,12.9262735 C22.5382716,12.6269455 22.2989941,12.383378 22.0049383,12.383378 Z M17.9753086,16.1434316 L17.9753086,17.6514745 L14.0246914,17.6514745 L14.0246914,16.1434316 L17.9753086,16.1434316 Z M16.6965728,9.48793566 L15.3034272,9.48793566 C14.8706257,9.48793566 14.5185185,9.84635571 14.5185185,10.2869169 L14.5185185,10.8954424 L17.4814815,10.8954424 L17.4814815,10.2869169 C17.4814815,9.84635571 17.1293743,9.48793566 16.6965728,9.48793566 Z" id="Combined-Shape" fill="currentColor" fill-rule="nonzero"></path>
                </g>
            </g>
        </g>
    </g>
</svg>