<?xml version="1.0" encoding="UTF-8"?>
<svg width="32px" height="32px" viewBox="0 0 32 32" version="1.1" xmlns="http://www.w3.org/2000/svg" xmlns:xlink="http://www.w3.org/1999/xlink">
    <title>257C4FFC-D8A9-492D-A6E0-30B0C251C660</title>
    <g id="Main" stroke="none" stroke-width="1" fill="none" fill-rule="evenodd">
        <g id="29-01-03" transform="translate(-36.000000, -386.000000)" fill="currentColor" fill-rule="nonzero">
            <g id="Reports_Default" transform="translate(26.000000, 386.000000)">
                <g id="Group" transform="translate(10.000000, 0.000000)">
                    <path d="M8.68648535,8 C9.07877437,8 9.37297069,8.33097086 9.37297069,8.71347249 L9.37297069,22.573055 L23.3135147,22.573055 C23.7058037,22.573055 24,22.9040259 24,23.2865275 C24,23.6690291 23.7058037,24 23.3135147,24 L8.68648535,24 C8.29419632,24 8,23.6690291 8,23.2865275 L8,8.71347249 C8,8.33097086 8.29419632,8 8.68648535,8 Z M18.3426928,14.2056075 C18.7528476,14.2056075 19.0913175,14.5086565 19.1409628,14.9003531 L19.1472313,15 L19.1472313,19.2056075 C19.1472313,19.6443384 18.7870271,20 18.3426928,20 C17.932538,20 17.594068,19.696951 17.5444227,19.3052544 L17.5381542,19.2056075 L17.5381542,15 C17.5381542,14.5612691 17.8983584,14.2056075 18.3426928,14.2056075 Z M15.0736157,10 C15.4837705,10 15.8222404,10.303049 15.8718857,10.6947456 L15.8781542,10.7943925 L15.8781542,19.2056075 C15.8781542,19.6443384 15.51795,20 15.0736157,20 C14.6634609,20 14.3249909,19.696951 14.2753456,19.3052544 L14.2690771,19.2056075 L14.2690771,10.7943925 C14.2690771,10.3556616 14.6292813,10 15.0736157,10 Z M11.8045386,13.513362 C12.2146934,13.513362 12.5531633,13.816411 12.6028086,14.2081076 L12.6090771,14.3077546 L12.6090771,19.2056075 C12.6090771,19.6443384 12.2488729,20 11.8045386,20 C11.3943837,20 11.0559138,19.696951 11.0062685,19.3052544 L11,19.2056075 L11,14.3077546 C11,13.8690237 11.3602042,13.513362 11.8045386,13.513362 Z M21.6117699,16.3084112 C22.0219247,16.3084112 22.3603946,16.6114602 22.4100399,17.0031568 L22.4163084,17.1028037 L22.4163084,19.2056075 C22.4163084,19.6443384 22.0561042,20 21.6117699,20 C21.2016151,20 20.8631452,19.696951 20.8134998,19.3052544 L20.8072313,19.2056075 L20.8072313,17.1028037 C20.8072313,16.6640729 21.1674355,16.3084112 21.6117699,16.3084112 Z" id="Combined-Shape"></path>
                </g>
            </g>
        </g>
    </g>
</svg>